<?xml version="1.0" encoding="utf-8"?>

<!DOCTYPE svg PUBLIC "-//W3C//DTD SVG 1.0//EN" "http://www.w3.org/TR/2001/REC-SVG-20010904/DTD/svg10.dtd">
<svg version="1.0" id="Ebene_1" xmlns="http://www.w3.org/2000/svg" xmlns:xlink="http://www.w3.org/1999/xlink" x="0px" y="0px"
	 width="72.301px" height="52.519px" viewBox="0 0 72.301 52.519" enable-background="new 0 0 72.301 52.519" xml:space="preserve">
<path fill="#040506" d="M61.374,46.172c0-1.341,1.086-2.428,2.427-2.428c1.337,0,2.425,1.086,2.425,2.428
	c0,1.338-1.088,2.424-2.425,2.424C62.46,48.596,61.374,47.51,61.374,46.172"/>
<path fill="#040506" d="M39.131,49.719c-7.418-0.086-13.388-4.464-16.472-11.529h14.389c0.345,2.087,2.153,3.68,4.338,3.68
	c2.185,0,3.992-1.593,4.338-3.68h12.653C55.62,44.194,48.294,49.828,39.131,49.719 M21.901,16.436h8.263
	c-0.208,0.959-0.294,1.975-0.228,3.035c0.139,2.312,1.028,4.566,2.607,6.4H20.38C20.432,22.423,20.965,19.254,21.901,16.436
	 M39.105,2.57C48.759,2.5,53.357,8.503,53.494,15.537c0.117,6.092-4.872,11.22-10.635,11.558c-5.804,0.342-9.994-3.378-10.254-8.039
	c-0.269-4.843,3.232-8.64,7.555-8.666c3.438-0.018,5.902,2.301,6.108,5.24c0.096,1.341-0.546,3.146-1.874,3.779
	c0.524-1.071,0.46-2.48,0.06-3.354c-0.534-1.171-1.782-2.332-3.82-2.26c-2.149,0.073-4.112,1.813-4.013,4.505
	c0.107,2.906,3.152,4.626,5.999,4.131c2.764-0.479,5.621-2.873,5.608-6.712c-0.009-3.885-3.37-7.245-8.021-7.3
	c-4.373-0.051-8.137,2.619-9.618,6.574h-8.165C25.473,7.337,31.645,2.623,39.105,2.57 M45.725,36.745
	c-0.345-2.084-2.153-3.677-4.338-3.677c-2.185,0-3.993,1.592-4.338,3.677H22.083c-1.019-2.803-1.608-5.976-1.696-9.432h13.656
	c2.252,1.793,5.387,2.894,9.329,2.748c3.109-0.117,5.934-1.146,8.261-2.748h13.94c0.331,1.532,1.693,2.681,3.325,2.681
	c1.878,0,3.403-1.522,3.403-3.401s-1.525-3.404-3.403-3.404c-1.631,0-2.994,1.149-3.325,2.683H53.436
	c2.997-2.784,4.789-6.605,4.681-10.386C57.869,6.913,50.367,0,38.269,0c-9.503,0-19.472,5.508-24.02,14.992H0v1.442h13.609
	c-1.146,2.835-1.822,5.993-1.888,9.437H0v1.442h11.73c0.445,13.713,11.164,25.641,27.78,25.193
	c11.663-0.316,19.493-8.375,21.545-14.317h11.244v-1.444H45.725z"/>
<path fill="#040506" d="M8.424,3.021c0-1.34,1.086-2.426,2.425-2.426c1.341,0,2.427,1.086,2.427,2.426
	c0,1.342-1.086,2.429-2.427,2.429C9.511,5.45,8.424,4.363,8.424,3.021"/>
</svg>
